<svg width="117" height="40" viewBox="0 0 117 40" fill="none" xmlns="http://www.w3.org/2000/svg">
<path d="M2.7441 15.4346C1.68306 14.3452 0.999843 12.7584 0.999843 10.7811C0.966353 9.08564 1.57734 7.44059 2.70947 6.17804C3.21285 5.62747 3.82443 5.1867 4.50596 4.88332C5.18748 4.57994 5.92428 4.42047 6.67026 4.41489C9.35592 4.41489 11.2513 6.30398 11.2608 7.91915C11.2608 8.78813 10.7098 9.45876 9.96358 9.45876C9.61423 9.46207 9.27665 9.33266 9.01903 9.09668C8.88409 8.96675 8.77793 8.80994 8.70742 8.63638C8.63691 8.46282 8.60363 8.2764 8.60973 8.08917C8.61846 7.69763 8.7814 7.32537 9.06311 7.05332C8.84105 6.68953 8.52419 6.39303 8.14648 6.19558C7.76877 5.99813 7.34445 5.90717 6.919 5.93246C6.45579 5.93717 6.00154 6.06064 5.59968 6.29106C5.19783 6.52148 4.8618 6.85114 4.62375 7.24852C3.99276 8.30786 3.68117 9.52689 3.72643 10.7591C3.67879 11.9973 4.00104 13.2216 4.65209 14.2759C4.89558 14.6729 5.23468 15.0025 5.63839 15.2346C6.04209 15.4667 6.49753 15.5939 6.96307 15.6046C8.05875 15.6046 8.75771 15.104 9.11034 14.4869C8.96968 14.3537 8.85711 14.1937 8.77924 14.0164C8.70138 13.839 8.6598 13.6479 8.65696 13.4542C8.65079 13.2668 8.68372 13.0801 8.75364 12.9061C8.82357 12.7321 8.92896 12.5746 9.06311 12.4435C9.32703 12.2055 9.67121 12.0762 10.0266 12.0814C10.7727 12.0814 11.3206 12.7521 11.3206 13.6179C11.3206 15.2488 9.43149 17.119 6.73323 17.1253C5.98884 17.1259 5.25196 16.9765 4.56658 16.686C3.8812 16.3955 3.26137 15.9699 2.7441 15.4346ZM2.7441 15.4346C1.68306 14.3452 0.999843 12.7584 0.999843 10.7811C0.966353 9.08564 1.57734 7.44059 2.70947 6.17804C3.21285 5.62747 3.82443 5.1867 4.50596 4.88332C5.18748 4.57994 5.92428 4.42047 6.67026 4.41489C9.35592 4.41489 11.2513 6.30398 11.2608 7.91915C11.2608 8.78813 10.7098 9.45876 9.96358 9.45876C9.61423 9.46207 9.27665 9.33266 9.01903 9.09668C8.88409 8.96675 8.77793 8.80994 8.70742 8.63638C8.63691 8.46282 8.60363 8.2764 8.60973 8.08917C8.61846 7.69763 8.7814 7.32537 9.06311 7.05332C8.84105 6.68953 8.52419 6.39303 8.14648 6.19558C7.76877 5.99813 7.34445 5.90717 6.919 5.93246C6.45579 5.93717 6.00154 6.06064 5.59968 6.29106C5.19783 6.52148 4.8618 6.85114 4.62375 7.24852C3.99276 8.30786 3.68117 9.52689 3.72643 10.7591C3.67879 11.9973 4.00104 13.2216 4.65209 14.2759C4.89558 14.6729 5.23468 15.0025 5.63839 15.2346C6.04209 15.4667 6.49753 15.5939 6.96307 15.6046C8.05875 15.6046 8.75771 15.104 9.11034 14.4869C8.96968 14.3537 8.85711 14.1937 8.77924 14.0164C8.70138 13.839 8.6598 13.6479 8.65696 13.4542C8.65079 13.2668 8.68372 13.0801 8.75364 12.9061C8.82357 12.7321 8.92896 12.5746 9.06311 12.4435C9.32703 12.2055 9.67121 12.0762 10.0266 12.0814C10.7727 12.0814 11.3206 12.7521 11.3206 13.6179C11.3206 15.2488 9.43149 17.119 6.73323 17.1253C5.98884 17.1259 5.25196 16.9765 4.56658 16.686C3.8812 16.3955 3.26137 15.9699 2.7441 15.4346ZM2.7441 15.4346C1.68306 14.3452 0.999843 12.7584 0.999843 10.7811C0.966353 9.08564 1.57734 7.44059 2.70947 6.17804C3.21285 5.62747 3.82443 5.1867 4.50596 4.88332C5.18748 4.57994 5.92428 4.42047 6.67026 4.41489C9.35592 4.41489 11.2513 6.30398 11.2608 7.91915C11.2608 8.78813 10.7098 9.45876 9.96358 9.45876C9.61423 9.46207 9.27665 9.33266 9.01903 9.09668C8.88409 8.96675 8.77793 8.80994 8.70742 8.63638C8.63691 8.46282 8.60363 8.2764 8.60973 8.08917C8.61846 7.69763 8.7814 7.32537 9.06311 7.05332C8.84105 6.68953 8.52419 6.39303 8.14648 6.19558C7.76877 5.99813 7.34445 5.90717 6.919 5.93246C6.45579 5.93717 6.00154 6.06064 5.59968 6.29106C5.19783 6.52148 4.8618 6.85114 4.62375 7.24852C3.99276 8.30786 3.68117 9.52689 3.72643 10.7591C3.67879 11.9973 4.00104 13.2216 4.65209 14.2759C4.89558 14.6729 5.23468 15.0025 5.63839 15.2346C6.04209 15.4667 6.49753 15.5939 6.96307 15.6046C8.05875 15.6046 8.75771 15.104 9.11034 14.4869C8.96968 14.3537 8.85711 14.1937 8.77924 14.0164C8.70138 13.839 8.6598 13.6479 8.65696 13.4542C8.65079 13.2668 8.68372 13.0801 8.75364 12.9061C8.82357 12.7321 8.92896 12.5746 9.06311 12.4435C9.32703 12.2055 9.67121 12.0762 10.0266 12.0814C10.7727 12.0814 11.3206 12.7521 11.3206 13.6179C11.3206 15.2488 9.43149 17.119 6.73323 17.1253C5.98884 17.1259 5.25196 16.9765 4.56658 16.686C3.8812 16.3955 3.26137 15.9699 2.7441 15.4346ZM41.439 11.2251C41.6122 11.2251 41.6594 11.181 41.6909 11.1243C41.7282 11.0238 41.7432 10.9164 41.7349 10.8095C41.7321 10.5946 41.6867 10.3825 41.6015 10.1852C41.5162 9.98801 41.3927 9.80961 41.2382 9.66034C41.0837 9.51106 40.9011 9.39386 40.701 9.31549C40.501 9.23712 40.2874 9.19914 40.0725 9.20373C38.8132 9.20373 38.3062 10.2112 38.2275 11.2251H41.439ZM16.4841 12.6734C15.5144 12.6923 14.8847 13.1456 14.8847 14.0398C14.8765 14.2332 14.9095 14.4261 14.9813 14.6058C15.0532 14.7856 15.1624 14.948 15.3016 15.0825C15.4408 15.217 15.607 15.3204 15.7891 15.386C15.9712 15.4516 16.1652 15.4778 16.3582 15.4629C16.6584 15.4517 16.9527 15.3756 17.2206 15.2397C17.4886 15.1038 17.7239 14.9114 17.9104 14.6758V13.4353C17.8993 13.3291 17.8615 13.2274 17.8003 13.1398C17.7392 13.0522 17.6568 12.9816 17.5609 12.9347C17.2369 12.7553 16.8699 12.6681 16.4998 12.6828L16.4841 12.6734ZM53.2017 12.1791C53.2017 14.5782 54.2502 15.6077 55.2734 15.6109C56.4415 15.6109 57.2885 14.5782 57.2979 12.5569C57.3332 11.6883 57.1144 10.8282 56.6682 10.0822C56.5133 9.81935 56.2937 9.60062 56.0302 9.44684C55.7667 9.29306 55.4682 9.20936 55.1632 9.20373C53.9479 9.20373 53.1923 10.3057 53.186 12.1728L53.2017 12.1791ZM22.737 16.7444C22.3592 16.6436 22.1073 16.4295 22.1073 16.1147C22.1119 15.9777 22.1463 15.8434 22.208 15.7211L22.2301 15.6739H22.2773C22.4954 15.633 22.7012 15.5425 22.8787 15.4094C23.0991 15.2236 23.1935 14.9655 23.1935 14.2413V10.5891C23.1746 9.95937 23.0298 9.75786 22.5197 9.74212C22.3833 9.74475 22.2474 9.7595 22.1136 9.7862H22.0349L22.0065 9.71379C21.9535 9.5871 21.9257 9.45127 21.9247 9.31393C21.9247 8.58663 22.7338 8.21511 23.2754 8.05453C23.4675 7.99127 23.6682 7.9573 23.8704 7.95378C24.604 7.95378 25.0007 8.47013 25.1739 9.13446C25.6556 8.35994 26.4333 7.84673 27.1701 7.84359C27.352 7.83422 27.5339 7.86183 27.7048 7.92475C27.8758 7.98767 28.0322 8.0846 28.1646 8.20967C28.297 8.33474 28.4027 8.48536 28.4753 8.65242C28.5479 8.81949 28.5858 8.99954 28.5869 9.18169C28.5932 9.34338 28.5676 9.50474 28.5115 9.65652C28.4554 9.80831 28.3699 9.94754 28.26 10.0663C28.15 10.185 28.0177 10.2809 27.8707 10.3484C27.7237 10.416 27.5647 10.4539 27.403 10.46C27.1426 10.4649 26.8885 10.379 26.6846 10.217C26.4806 10.0549 26.3394 9.82692 26.2853 9.5721C25.8697 9.71064 25.2778 10.2301 25.2715 12.0279V14.2319C25.2715 14.9529 25.3754 15.211 25.5864 15.3968C25.8303 15.5381 26.1001 15.6291 26.3798 15.6644H26.427L26.4491 15.7116C26.5156 15.8428 26.5532 15.9866 26.5592 16.1335C26.5592 16.4295 26.3389 16.6342 25.9799 16.7318C25.4557 16.8521 24.9179 16.9019 24.3805 16.8797C23.8231 16.9008 23.2653 16.8489 22.7212 16.7255L22.737 16.7444ZM30.0226 16.7255C29.6448 16.6247 29.3929 16.4106 29.3929 16.0958C29.3975 15.9588 29.4319 15.8245 29.4936 15.7022L29.5157 15.655H29.5629C29.7802 15.6146 29.985 15.524 30.1611 15.3905C30.3815 15.2047 30.476 14.9466 30.476 14.2224V10.5891C30.476 9.95937 30.3154 9.75786 29.8053 9.74212C29.6689 9.74475 29.533 9.7595 29.3992 9.7862H29.3205L29.2921 9.71379C29.2381 9.58727 29.2093 9.45146 29.2071 9.31393C29.2229 8.58663 30.0194 8.21511 30.561 8.05453C30.7531 7.99103 30.9537 7.95706 31.156 7.95378C31.8928 7.95378 32.2863 8.47013 32.4595 9.13761C32.9412 8.35994 33.7189 7.84673 34.4525 7.84673C34.6343 7.83693 34.8161 7.86413 34.987 7.92669C35.158 7.98926 35.3144 8.08588 35.4469 8.2107C35.5794 8.33552 35.6851 8.48595 35.7577 8.65285C35.8303 8.81976 35.8683 8.99968 35.8693 9.18169C35.8857 9.50435 35.7742 9.82047 35.5591 10.0615C35.344 10.3026 35.0426 10.4491 34.7201 10.4694C34.4595 10.475 34.2052 10.3893 34.0011 10.2272C33.797 10.065 33.6559 9.83665 33.6024 9.58155C33.1868 9.72008 32.5917 10.2396 32.5854 12.0374V14.2413C32.5854 14.9623 32.6925 15.2205 32.9003 15.4062C33.1444 15.5471 33.4141 15.6381 33.6937 15.6739H33.7409L33.763 15.7211C33.8286 15.8524 33.8651 15.9963 33.87 16.143C33.87 16.4389 33.6528 16.6436 33.2939 16.7412C32.7707 16.8614 32.2339 16.9112 31.6976 16.8892C31.1391 16.9103 30.5802 16.8585 30.0352 16.7349L30.0226 16.7255ZM45.4848 16.7349C45.107 16.631 44.8551 16.4201 44.8551 16.1052C44.8597 15.9683 44.8941 15.834 44.9558 15.7116L44.9747 15.6676H45.0251C45.2432 15.6267 45.449 15.5363 45.6265 15.4031C45.8437 15.2173 45.9413 14.9592 45.9413 14.235V9.45246L44.6504 9.40838L44.6284 9.35171C44.5665 9.20845 44.5333 9.05439 44.5308 8.89833C44.5298 8.79296 44.5504 8.68851 44.5913 8.59141C44.6322 8.4943 44.6926 8.40661 44.7687 8.33375C44.8448 8.26088 44.9351 8.20438 45.0338 8.16773C45.1326 8.13108 45.2379 8.11506 45.3431 8.12065H45.9067V7.56337C45.9067 6.27879 46.146 5.54834 46.4734 5.04458C46.974 4.26376 47.8493 3.72852 49.178 3.72852C50.8498 3.72852 52.2477 4.50934 52.2572 5.75614C52.2657 5.91494 52.242 6.07381 52.1874 6.22318C52.1328 6.37255 52.0486 6.50933 51.9397 6.62525C51.8309 6.74117 51.6996 6.83384 51.554 6.89767C51.4083 6.9615 51.2513 6.99517 51.0922 6.99664C50.7956 6.99269 50.5119 6.87414 50.3007 6.66582C50.0894 6.45749 49.9669 6.17552 49.9588 5.87893C49.9619 5.65554 50.0273 5.43745 50.1477 5.24923C49.9056 5.07766 49.6129 4.99229 49.3165 5.0068C49.1244 4.98635 48.9303 5.02038 48.7566 5.10501C48.5829 5.18964 48.4365 5.32145 48.3342 5.48537C48.1474 5.86758 48.0639 6.29196 48.0917 6.71643V8.09546H50.2957L50.3209 8.15529C50.3838 8.30144 50.416 8.45899 50.4153 8.61811C50.4228 8.83555 50.3472 9.04768 50.2039 9.21141C50.0607 9.37515 49.8604 9.47822 49.6439 9.49969C49.4802 9.49969 49.3039 9.49969 49.1465 9.49969C48.7781 9.49969 48.4129 9.4745 48.1421 9.4682V14.2413C48.1421 14.9592 48.2649 15.2173 48.4822 15.4062C48.7652 15.5481 49.0711 15.6387 49.3858 15.6739H49.433L49.455 15.7211C49.5118 15.8336 49.543 15.9572 49.5463 16.0832C49.5463 16.398 49.2756 16.6184 48.8726 16.7129C48.3025 16.8406 47.7184 16.8946 47.1346 16.8734C46.574 16.8942 46.0132 16.8423 45.4659 16.7192L45.4848 16.7349ZM71.8061 16.7192C71.4283 16.6184 71.1764 16.4043 71.1764 16.0895C71.1806 15.9515 71.215 15.816 71.2772 15.6928L71.2961 15.6487H71.3433C71.5599 15.6073 71.7637 15.5156 71.9384 15.3811C72.1651 15.1984 72.2532 14.9403 72.2532 14.2161V10.5891C72.2375 9.95937 72.0958 9.75786 71.5857 9.74212C71.4493 9.74475 71.3134 9.7595 71.1796 9.7862H71.1009L71.0694 9.71379C71.0191 9.58859 70.9924 9.45515 70.9907 9.32023C70.9907 8.58978 71.803 8.21511 72.3414 8.06083C72.5367 7.997 72.7405 7.96303 72.9459 7.96008C73.6763 7.96008 74.073 8.48273 74.2399 9.15965C74.7185 8.37253 75.4804 7.85303 76.2298 7.84988C76.4119 7.83961 76.5942 7.86659 76.7655 7.92918C76.9369 7.99177 77.0936 8.08865 77.2262 8.2139C77.3589 8.33915 77.4645 8.49013 77.5368 8.65762C77.6091 8.82511 77.6464 9.00557 77.6466 9.18799C77.6538 9.34886 77.6291 9.50957 77.5741 9.66093C77.5191 9.81228 77.4348 9.9513 77.3261 10.07C77.2173 10.1888 77.0861 10.2849 76.9402 10.3529C76.7942 10.4209 76.6362 10.4594 76.4753 10.4663C76.2136 10.4722 75.9579 10.3869 75.7522 10.2249C75.5466 10.0628 75.4037 9.83427 75.3482 9.5784C74.9357 9.71379 74.3501 10.2333 74.3438 12.0342V14.2382C74.3438 14.9592 74.4477 15.2205 74.6587 15.4031C74.9036 15.5422 75.1729 15.633 75.4521 15.6707H75.4993L75.5213 15.7179C75.5899 15.8496 75.6286 15.9947 75.6347 16.143C75.6347 16.4389 75.4143 16.6405 75.0585 16.7381C74.5365 16.8583 74.0007 16.908 73.4654 16.886C72.9079 16.9071 72.3501 16.8552 71.8061 16.7318V16.7192ZM55.1632 17.0088C53.9884 17.0222 52.8563 16.5693 52.0148 15.7494C51.586 15.3104 51.2492 14.7902 51.0243 14.2192C50.7994 13.6483 50.6908 13.0381 50.705 12.4246C50.6987 11.8266 50.8117 11.2334 51.0373 10.6796C51.263 10.1257 51.5968 9.62246 52.0192 9.19915C52.4416 8.77584 52.9442 8.44099 53.4976 8.21419C54.0509 7.98738 54.6439 7.87316 55.2419 7.87822C55.8347 7.86334 56.4244 7.96709 56.9764 8.18337C57.5284 8.39964 58.0317 8.72408 58.4566 9.13761C58.8729 9.57666 59.1984 10.0936 59.4146 10.6587C59.6307 11.2239 59.7331 11.8261 59.716 12.4309C59.7397 13.0363 59.6383 13.6401 59.4182 14.2046C59.1982 14.769 58.8641 15.2821 58.4369 15.7117C58.0097 16.1413 57.4985 16.4782 56.9352 16.7013C56.372 16.9245 55.7687 17.0292 55.1632 17.0088ZM35.8914 12.6009C35.8547 11.3524 36.2987 10.1375 37.1319 9.20688C37.5518 8.77063 38.0584 8.42706 38.6191 8.19824C39.1798 7.96942 39.7821 7.86041 40.3874 7.87822C40.8907 7.85762 41.3926 7.94471 41.8596 8.13366C42.3265 8.32261 42.7477 8.60907 43.0951 8.97389C43.6555 9.59127 43.9674 10.3944 43.9704 11.2282C43.9778 11.659 43.876 12.0847 43.6744 12.4656L43.6461 12.5128H38.2086C38.2999 14.087 39.3075 15.2016 41.0612 15.2079C41.471 15.2107 41.8769 15.1281 42.2531 14.9655C42.6293 14.8029 42.9675 14.5638 43.2462 14.2633L43.306 14.1878L43.3816 14.2445C43.4899 14.3268 43.5755 14.4353 43.6306 14.5597C43.6856 14.6841 43.7083 14.8205 43.6965 14.956C43.6965 15.8691 42.6228 17.0372 40.252 17.0372C39.6732 17.0364 39.1003 16.9206 38.5666 16.6964C38.033 16.4723 37.5492 16.1443 37.1434 15.7315C36.7377 15.3187 36.418 14.8294 36.2031 14.2919C35.9881 13.7545 35.8822 13.1797 35.8914 12.6009ZM67.2566 16.631C67.0995 16.3766 66.9926 16.0944 66.9417 15.7998C66.8536 15.9006 66.7497 16.0076 66.5922 16.1587C65.9982 16.7246 65.2087 17.0393 64.3883 17.0372C63.9684 17.0523 63.5503 16.9756 63.1631 16.8125C62.7759 16.6494 62.429 16.4037 62.1466 16.0926C61.3658 15.1481 61.3721 13.98 61.3721 12.3144V10.6678C61.3532 10.016 61.1485 9.7925 60.5409 9.77361C60.4621 9.77361 60.3771 9.77361 60.2827 9.77361H60.2103L60.1851 9.70434C60.1379 9.59492 60.1133 9.47714 60.1127 9.35801C60.1315 8.57403 61.1233 8.15843 61.7026 8.03564C61.8952 8.00168 62.0898 7.98064 62.2851 7.97267C62.4799 7.95785 62.6754 7.98853 62.8563 8.0623C63.0372 8.13607 63.1984 8.2509 63.3273 8.39772C63.5533 8.71315 63.6644 9.09652 63.6421 9.48395V12.2452C63.6421 13.2653 63.7145 14.0272 63.9412 14.5184C64.0381 14.753 64.208 14.9502 64.4258 15.0806C64.6436 15.2111 64.8976 15.2678 65.1502 15.2425C65.4263 15.2585 65.7013 15.1971 65.9444 15.0652C66.1874 14.9334 66.3889 14.7364 66.5261 14.4963C66.7712 14.0068 66.8871 13.4627 66.863 12.9158V10.6804C66.8441 10.0286 66.6395 9.80194 66.0318 9.7862C65.9458 9.78188 65.8596 9.78188 65.7736 9.7862H65.7012L65.6729 9.71693C65.6282 9.60687 65.6047 9.48937 65.6036 9.3706C65.6225 8.58663 66.6111 8.17103 67.1967 8.04824C67.3882 8.01411 67.5818 7.99307 67.7761 7.98527C67.9714 7.96994 68.1675 8.00038 68.349 8.07417C68.5304 8.14795 68.6922 8.26305 68.8214 8.41031C69.0488 8.72505 69.1601 9.10894 69.1362 9.49654C69.1362 9.81139 69.1047 10.375 69.1047 12.7269C69.1047 13.7218 69.1047 14.2508 69.1047 14.4113C69.1047 15.0882 69.3472 15.3905 69.9737 15.4031H70.1878H70.2602L70.2854 15.4724C70.3304 15.5803 70.3549 15.6955 70.3578 15.8124C70.3326 16.5743 69.3409 16.8797 68.7647 16.9962C68.5857 17.0281 68.4048 17.0481 68.2232 17.0561C68.0432 17.0713 67.8623 17.041 67.6972 16.9678C67.5321 16.8946 67.3881 16.7809 67.2786 16.6373L67.2566 16.631ZM12.4918 14.1909C12.4838 13.7921 12.5731 13.3973 12.7519 13.0407C12.9308 12.6842 13.1938 12.3765 13.5182 12.1444C14.2826 11.6354 15.1887 11.3819 16.1063 11.4203C16.7169 11.4117 17.3236 11.5186 17.8946 11.7351V10.7654C17.8946 9.78305 17.5074 9.22262 16.4054 9.21003C16.0501 9.22142 15.6982 9.2829 15.3601 9.39264C15.3959 9.53261 15.415 9.67636 15.4168 9.82083C15.4218 10.1345 15.3095 10.4388 15.1019 10.6741C14.9957 10.7877 14.8669 10.8779 14.7237 10.9386C14.5806 10.9993 14.4262 11.0294 14.2707 11.0267C14.1204 11.0247 13.9719 10.9928 13.834 10.933C13.696 10.8732 13.5713 10.7866 13.467 10.6783C13.3628 10.5699 13.2811 10.442 13.2266 10.3018C13.1722 10.1616 13.1461 10.0121 13.1498 9.86176C13.1498 8.66849 14.6139 7.86562 16.5471 7.86562C18.0835 7.86562 19.047 8.2277 19.5602 8.88888C20.0261 9.48395 20.0482 10.3498 20.0513 11.5745V14.7703C20.0513 15.3999 20.4103 15.5542 21.1785 15.6739H21.2666V15.762C21.2226 16.6027 20.6023 16.9522 19.938 17.0214C19.8803 17.0246 19.8225 17.0246 19.7648 17.0214C19.4361 17.0306 19.1119 16.9434 18.8321 16.7705C18.5524 16.5977 18.3294 16.3467 18.1906 16.0485C17.4824 16.661 16.5856 17.0122 15.6497 17.0435C13.8646 17.0435 12.5013 15.8376 12.5013 14.1878" fill="white"/>
<path d="M33.9235 26.111C34.4418 26.4488 35.0379 26.6482 35.6551 26.6904C36.162 26.6904 36.5745 26.4605 36.5745 25.9158C36.5745 25.3711 36.1148 25.2043 35.5449 25.0343C34.6634 24.7792 33.6559 24.4896 33.6559 23.2333C33.6559 21.9771 34.6949 21.3096 35.8598 21.3096C36.679 21.2947 37.4709 21.6036 38.0637 22.1691L37.3742 23.0161C36.9787 22.63 36.4585 22.3978 35.907 22.3612C35.4725 22.3612 35.0632 22.5784 35.0632 23.0633C35.0632 23.6206 35.5701 23.778 36.1369 23.9449C37.0216 24.2251 38.0008 24.5746 38.0008 25.834C38.0008 27.0934 37.0562 27.7671 35.715 27.7671C34.9348 27.7753 34.1691 27.5566 33.511 27.1374L33.9235 26.111Z" fill="white"/>
<path d="M41.3729 21.3096C42.267 21.3096 44.0081 21.5899 44.0081 24.37C44.0081 26.6904 42.7771 27.7546 41.1745 27.7546C39.5719 27.7546 38.5487 26.7156 38.5487 24.5274C38.555 22.0117 40.1292 21.3096 41.3729 21.3096ZM42.5346 24.5652C42.5346 23.2113 42.2198 22.377 41.3004 22.377C40.3811 22.377 40.019 23.1987 40.019 24.3605C40.019 25.5223 40.2016 26.6935 41.2784 26.6935C42.16 26.6904 42.5346 25.8246 42.5346 24.5652Z" fill="white"/>
<path d="M46.4639 19.1812V25.5916C46.4639 26.3409 46.6213 26.618 47.1156 26.618C47.3795 26.6034 47.6382 26.5382 47.8775 26.4259L48.1924 27.3925C47.7503 27.6309 47.2558 27.7553 46.7535 27.7546C45.1195 27.7546 45.025 26.81 45.025 25.8938V19.1812H46.4639Z" fill="white"/>
<path d="M53.611 21.4922V26.5581L53.7086 27.5751H52.4744L52.3894 26.8604H52.3516C52.156 27.1419 51.893 27.37 51.5867 27.524C51.2805 27.6779 50.9405 27.7529 50.5979 27.742C49.2692 27.742 48.6017 27.043 48.6017 25.6136V21.4922H50.0406V25.3491C50.0406 26.0859 50.176 26.6306 50.9852 26.6306C51.2944 26.6238 51.5897 26.5003 51.8116 26.2847C52.0336 26.0692 52.1657 25.7777 52.1816 25.4688V21.4922H53.611Z" fill="white"/>
<path d="M57.6473 26.5928C56.5705 26.5928 56.1108 25.7616 56.1108 24.5022C56.1108 23.1232 56.6775 22.4588 57.4898 22.4588C57.7476 22.4798 57.9975 22.5579 58.2214 22.6875C58.4452 22.8171 58.6374 22.995 58.7839 23.2082L59.6906 22.4588C59.4439 22.0978 59.1113 21.8038 58.7227 21.6032C58.3342 21.4026 57.9019 21.3017 57.4646 21.3096C56.1832 21.3096 54.6719 22.1314 54.6719 24.562C54.6719 26.215 55.3394 27.2603 56.5201 27.6066L55.7047 29.4548H56.7972L57.5497 27.742C58.2846 27.7361 58.9976 27.4907 59.5804 27.043L59.0357 26.0733C58.6452 26.3989 58.1556 26.5821 57.6473 26.5928Z" fill="white"/>
<path d="M62.8329 21.3096C63.7271 21.3096 65.4682 21.5899 65.4682 24.37C65.4682 26.6904 64.2372 27.7546 62.6346 27.7546C61.032 27.7546 60.0087 26.7156 60.0087 24.5274C60.015 22.0118 61.5861 21.3096 62.8329 21.3096ZM61.032 19.1057C61.3237 18.8835 61.6791 18.761 62.0458 18.7562C62.6755 18.7562 63.1226 19.0711 63.6799 19.0711C63.9446 19.0645 64.2031 18.9885 64.4292 18.8507L64.5268 19.8299C64.2808 19.9841 63.9954 20.064 63.7051 20.0597C63.1604 20.0597 62.5181 19.7826 62.0364 19.7826C61.7196 19.7841 61.4093 19.8723 61.139 20.0377L61.032 19.1057ZM64.001 24.5652C64.001 23.2113 63.6862 22.377 62.7668 22.377C61.8475 22.377 61.4854 23.1987 61.4854 24.3605C61.4854 25.5223 61.668 26.6936 62.7448 26.6936C63.6201 26.6904 64.001 25.8246 64.001 24.5652Z" fill="white"/>
<path d="M71.0441 22.9909C71.0441 24.8517 68.7331 25.0941 67.6217 25.1067C67.6689 25.8938 68.116 26.6558 69.1456 26.6558C69.6959 26.6434 70.2283 26.4571 70.6663 26.1237L71.1165 27.0682C70.4994 27.5191 69.7523 27.7568 68.9881 27.7451C66.992 27.7451 66.1545 26.4637 66.1545 24.6502C66.1545 22.8367 67.1809 21.3002 69.1046 21.3002C70.2979 21.3096 71.0441 21.9141 71.0441 22.9909ZM69.0385 22.3392C68.0719 22.3392 67.6123 23.2837 67.5745 24.1748C68.2294 24.1748 69.7627 23.9827 69.7627 23.0508C69.7694 22.9545 69.7552 22.8579 69.721 22.7677C69.6868 22.6774 69.6335 22.5957 69.5646 22.528C69.4958 22.4604 69.4131 22.4085 69.3223 22.3759C69.2315 22.3433 69.1346 22.3308 69.0385 22.3392Z" fill="white"/>
<path d="M72.143 26.1111C72.6602 26.4487 73.2553 26.6482 73.8715 26.6904C74.3785 26.6904 74.7909 26.4606 74.7909 25.9159C74.7909 25.3712 74.3312 25.2043 73.7645 25.0343C72.8798 24.7793 71.8754 24.4896 71.8754 23.2334C71.8754 21.9771 72.9176 21.3096 74.0793 21.3096C74.8976 21.2949 75.6885 21.6038 76.2801 22.1692L75.5906 23.0161C75.196 22.6308 74.6769 22.3986 74.1266 22.3612C73.6921 22.3612 73.2796 22.5785 73.2796 23.0634C73.2796 23.6206 73.7865 23.7781 74.3564 23.9449C75.238 24.2251 76.2172 24.5746 76.2172 25.834C76.2172 27.0934 75.2726 27.7672 73.9314 27.7672C73.151 27.7767 72.385 27.5578 71.7274 27.1375L72.143 26.1111Z" fill="white"/>
<path d="M27.4345 29.1714C27.5434 29.1671 27.652 29.185 27.7537 29.224C27.8554 29.263 27.9481 29.3224 28.0261 29.3983C28.1042 29.4743 28.166 29.5654 28.2077 29.666C28.2494 29.7667 28.2702 29.8747 28.2689 29.9837C28.2699 30.0918 28.2487 30.199 28.2067 30.2986C28.1646 30.3982 28.1026 30.4881 28.0244 30.5628C27.9461 30.6375 27.8534 30.6953 27.752 30.7327C27.6505 30.7701 27.5425 30.7863 27.4345 30.7802C27.326 30.7887 27.2169 30.7742 27.1144 30.7377C27.0119 30.7011 26.9182 30.6434 26.8395 30.5683C26.7608 30.4931 26.6988 30.4022 26.6575 30.3015C26.6163 30.2007 26.5968 30.0925 26.6002 29.9837C26.5988 29.8747 26.6196 29.7667 26.6614 29.666C26.7031 29.5654 26.7649 29.4743 26.8429 29.3983C26.921 29.3224 27.0137 29.263 27.1154 29.224C27.2171 29.185 27.3257 29.1671 27.4345 29.1714ZM26.7198 37.8077V31.7248H28.1587V37.8077H26.7198Z" fill="white"/>
<path d="M29.5124 37.8077V32.7701L29.4148 31.7185H30.627L30.7498 32.4804C30.9563 32.1801 31.2349 31.9363 31.5599 31.7713C31.8849 31.6063 32.2461 31.5254 32.6105 31.5359C33.8195 31.5359 34.5342 32.2128 34.5342 33.6391V37.8014H33.0954V33.9602C33.0954 33.2235 32.9631 32.6536 32.1886 32.6536C32.0274 32.6528 31.8675 32.6837 31.7182 32.7447C31.5689 32.8056 31.4331 32.8954 31.3185 33.0088C31.2039 33.1222 31.1128 33.2571 31.0503 33.4058C30.9878 33.5545 30.9552 33.714 30.9544 33.8752V37.8077H29.5124Z" fill="white"/>
<path d="M40.8408 36.6459L40.951 37.8077H39.6916L39.6066 37.178H39.5594C39.3715 37.4392 39.122 37.65 38.8331 37.7917C38.5442 37.9334 38.2248 38.0016 37.9033 37.9903C36.1968 37.9903 35.5325 36.7781 35.5325 35.0496C35.5325 32.9212 36.5966 31.5674 38.6809 31.5674C39.4161 31.5915 40.1424 31.735 40.8314 31.9924L40.8408 36.6459ZM39.4145 32.7512C39.1254 32.6403 38.8174 32.5869 38.5078 32.5938C37.3586 32.5938 36.9713 33.6706 36.9713 34.9772C36.9713 35.9816 37.2137 36.9355 38.2307 36.9355C38.378 36.9467 38.526 36.928 38.666 36.8808C38.806 36.8336 38.935 36.7587 39.0454 36.6606C39.1559 36.5625 39.2454 36.4432 39.3089 36.3097C39.3723 36.1763 39.4082 36.0315 39.4145 35.884V32.7512Z" fill="white"/>
<path d="M42.2197 37.8077V32.7701L42.1221 31.7185H43.3311L43.4539 32.4804C43.6605 32.1801 43.939 31.9363 44.2641 31.7713C44.5891 31.6063 44.9503 31.5254 45.3147 31.5359C46.5237 31.5359 47.2384 32.2128 47.2384 33.6391V37.8014H45.7996V33.9602C45.7996 33.2235 45.6642 32.6536 44.8928 32.6536C44.7315 32.6528 44.5717 32.6837 44.4224 32.7447C44.2731 32.8056 44.1373 32.8954 44.0227 33.0088C43.9081 33.1222 43.8169 33.2571 43.7545 33.4058C43.692 33.5545 43.6594 33.714 43.6586 33.8752V37.8077H42.2197Z" fill="white"/>
<path d="M52.6161 36.3059L53.1608 37.2756C52.56 37.7418 51.8179 37.9885 51.0576 37.9746C49.2787 37.9746 48.2523 36.8506 48.2523 34.7946C48.2523 32.364 49.7636 31.5422 51.045 31.5422C51.4822 31.5343 51.9145 31.6352 52.3031 31.8358C52.6916 32.0364 53.0242 32.3304 53.271 32.6914L52.3516 33.4408C52.2051 33.2276 52.013 33.0497 51.7891 32.9201C51.5653 32.7905 51.3154 32.7124 51.0576 32.6914C50.2484 32.6914 49.6786 33.3557 49.6786 34.7348C49.6786 35.9942 50.1382 36.8254 51.215 36.8254C51.7277 36.8175 52.2222 36.6342 52.6161 36.3059Z" fill="white"/>
<path d="M58.2391 33.2235C58.2391 35.0843 55.9313 35.3267 54.8167 35.3393C54.8671 36.1264 55.3142 36.8883 56.3406 36.8883C56.892 36.8767 57.4256 36.6904 57.8645 36.3563L58.3115 37.3008C57.6948 37.7523 56.9474 37.99 56.1832 37.9777C54.187 37.9777 53.3653 36.6963 53.3653 34.8828C53.3653 33.0692 54.3948 31.5328 56.3154 31.5328C57.5024 31.5422 58.2391 32.1467 58.2391 33.2235ZM56.2335 32.5718C55.2638 32.5718 54.8041 33.5163 54.7695 34.4073C55.4212 34.4073 56.9577 34.2153 56.9577 33.2833C56.9644 33.1871 56.9502 33.0905 56.916 33.0002C56.8818 32.91 56.8285 32.8282 56.7597 32.7606C56.6908 32.693 56.6081 32.6411 56.5173 32.6085C56.4265 32.5759 56.3297 32.5634 56.2335 32.5718Z" fill="white"/>
<path d="M59.8576 29.1714C59.9666 29.1671 60.0753 29.185 60.1772 29.224C60.2791 29.263 60.372 29.3222 60.4503 29.3982C60.5286 29.4741 60.5906 29.5652 60.6327 29.6658C60.6748 29.7665 60.696 29.8746 60.6951 29.9837C60.6957 30.0919 60.6741 30.1992 60.6317 30.2988C60.5893 30.3984 60.5269 30.4883 60.4485 30.5629C60.37 30.6376 60.2771 30.6953 60.1755 30.7327C60.0739 30.7701 59.9657 30.7863 59.8576 30.7802C59.7492 30.7882 59.6403 30.7733 59.538 30.7366C59.4357 30.6999 59.3422 30.6422 59.2636 30.5671C59.185 30.4921 59.123 30.4014 59.0816 30.3009C59.0402 30.2004 59.0203 30.0923 59.0232 29.9837C59.0219 29.8747 59.0427 29.7667 59.0844 29.666C59.1262 29.5654 59.1879 29.4743 59.266 29.3983C59.344 29.3224 59.4367 29.263 59.5384 29.224C59.6401 29.185 59.7487 29.1671 59.8576 29.1714ZM59.146 37.8077V31.7248H60.5849V37.8077H59.146Z" fill="white"/>
<path d="M63.3901 37.8077H61.9512V32.704L61.841 31.7248H63.028L63.1729 32.6064C63.2776 32.3005 63.474 32.0342 63.7354 31.8438C63.9967 31.6534 64.3104 31.5481 64.6337 31.5422C64.9727 31.5359 65.3074 31.6195 65.6035 31.7847L65.3484 33.0063C65.0873 32.8536 64.7914 32.7701 64.4889 32.7638C63.8372 32.7638 63.4121 33.2833 63.3901 33.9855V37.8077Z" fill="white"/>
<path d="M70.874 36.6459L70.9842 37.8077H69.7248L69.6398 37.178H69.5925C69.4047 37.4392 69.1552 37.65 68.8663 37.7917C68.5774 37.9334 68.258 38.0016 67.9364 37.9903C66.23 37.9903 65.5656 36.7781 65.5656 35.0496C65.5656 32.9212 66.6298 31.5674 68.7141 31.5674C69.4502 31.5917 70.1775 31.7352 70.8677 31.9924L70.874 36.6459ZM69.4477 32.7512C69.1585 32.6406 68.8505 32.5872 68.541 32.5938C67.3918 32.5938 67.0045 33.6706 67.0045 34.9772C67.0045 35.9816 67.2469 36.9355 68.2639 36.9355C68.4098 36.9462 68.5564 36.9278 68.6952 36.8814C68.834 36.835 68.9622 36.7614 69.0723 36.6651C69.1824 36.5687 69.2723 36.4514 69.3368 36.32C69.4012 36.1886 69.4389 36.0458 69.4477 35.8997V32.7512Z" fill="white"/>
<path d="M72.1428 36.3436C72.66 36.6813 73.2551 36.8807 73.8713 36.923C74.3782 36.923 74.7907 36.6931 74.7907 36.1484C74.7907 35.6037 74.331 35.4369 73.7611 35.2669C72.8795 35.0118 71.8878 34.7222 71.8878 33.4659C71.8878 32.2097 72.9268 31.5422 74.0917 31.5422C74.9056 31.5308 75.6914 31.8394 76.2799 32.4017L75.5904 33.2487C75.1933 32.8613 74.6706 32.6289 74.1169 32.5938C73.6793 32.5938 73.27 32.811 73.27 33.2959C73.27 33.8532 73.7769 34.0106 74.3467 34.1775C75.2283 34.4577 76.2075 34.8072 76.2075 36.0666C76.2075 37.326 75.263 37.9997 73.9217 37.9997C73.1415 38.008 72.3758 37.7892 71.7178 37.3701L72.1428 36.3436Z" fill="white"/>
<path d="M22.3276 31.369V37.8045H23.7633V32.8299H25.5517V31.7059H23.7633V31.2588C23.7633 30.5945 23.9932 30.2545 24.5977 30.2545C24.998 30.2755 25.3889 30.3829 25.7437 30.5693L26.0964 29.6027C25.5728 29.3429 24.9993 29.199 24.4151 29.1808C22.5449 29.1682 22.3276 30.3993 22.3276 31.369Z" fill="white"/>
<path d="M92.8058 2.7052C92.8253 2.68306 92.8489 2.66498 92.8754 2.65201C92.9019 2.63904 92.9307 2.63144 92.9601 2.62964C92.9797 2.6308 92.9989 2.63594 93.0164 2.64474C93.034 2.65355 93.0496 2.66584 93.0623 2.68086C93.0749 2.69588 93.0844 2.71332 93.0901 2.73212C93.0958 2.75092 93.0976 2.77068 93.0955 2.79021C93.0913 2.85198 93.063 2.90965 93.0168 2.95078C90.9986 5.46957 89.5282 8.40081 89.5282 12.4749C89.5282 16.5491 90.9986 19.4268 93.0168 21.9361C93.0627 21.9788 93.0908 22.0373 93.0955 22.0999C93.0976 22.1194 93.0958 22.1392 93.0901 22.158C93.0844 22.1768 93.0749 22.1942 93.0623 22.2092C93.0496 22.2242 93.034 22.2365 93.0164 22.2453C92.9989 22.2541 92.9797 22.2593 92.9601 22.2604C92.9303 22.2588 92.9012 22.2509 92.8746 22.2374C92.8481 22.2238 92.8246 22.2049 92.8058 22.1817L84.1916 13.8603C83.9708 13.6959 83.7914 13.4822 83.6679 13.2362C83.5443 12.9902 83.48 12.7187 83.48 12.4435C83.48 12.1682 83.5443 11.8967 83.6679 11.6507C83.7914 11.4047 83.9708 11.191 84.1916 11.0266L92.8058 2.7052Z" fill="white"/>
<path d="M99.4281 2C96.0561 2 94.74 6.7794 94.74 12.475C94.74 18.1706 96.0561 22.887 99.4281 22.887C101.453 22.887 103.178 21.7001 103.181 20.7272C103.181 20.6156 103.158 20.5053 103.113 20.403C103.069 20.3007 103.004 20.2085 102.923 20.1321C101.963 19.2065 101.591 18.2808 101.585 17.4622C101.589 16.7634 101.859 16.0925 102.342 15.5868C102.824 15.0811 103.481 14.7789 104.179 14.7419C105.895 14.7419 106.906 16.0895 106.906 17.8337C106.906 19.4867 106.2 20.8657 105.435 21.9708C105.407 22.0113 105.391 22.0597 105.391 22.1094C105.388 22.1473 105.399 22.1851 105.424 22.2146C105.448 22.2441 105.483 22.2628 105.52 22.2668C105.551 22.2639 105.582 22.2549 105.609 22.2404C105.637 22.2258 105.661 22.2059 105.681 22.1818L114.279 13.8603C114.501 13.6968 114.682 13.4833 114.806 13.2372C114.931 12.9911 114.995 12.7193 114.995 12.4435C114.995 12.1678 114.931 11.8959 114.806 11.6498C114.682 11.4037 114.501 11.1903 114.279 11.0267L105.681 2.70526C105.64 2.65861 105.582 2.62935 105.52 2.6234C105.501 2.62496 105.483 2.63031 105.466 2.63914C105.449 2.64796 105.435 2.66008 105.423 2.67476C105.41 2.68945 105.401 2.70641 105.396 2.72463C105.391 2.74285 105.389 2.76196 105.391 2.78082C105.392 2.83138 105.407 2.88069 105.435 2.9225C106.2 4.02447 106.906 5.40351 106.906 7.05332C106.906 8.79758 105.895 10.1483 104.179 10.1483C103.481 10.1106 102.824 9.80764 102.341 9.30143C101.859 8.79522 101.589 8.12396 101.585 7.42484C101.585 6.60938 101.963 5.68373 102.923 4.75807C103.004 4.68159 103.069 4.58939 103.113 4.48709C103.158 4.38479 103.181 4.27452 103.181 4.16301C103.181 3.18698 101.453 2 99.4281 2Z" fill="white"/>
</svg>
